<svg width="50" height="50" viewBox="0 0 50 50" fill="none" xmlns="http://www.w3.org/2000/svg">
<g id="close-2 1" clip-path="url(#clip0_35_882)">
<g id="02 User">
<path id="Vector" d="M2.44131 49.9998C1.95838 49.9999 1.48627 49.8568 1.0847 49.5885C0.683131 49.3203 0.37014 48.9389 0.185318 48.4928C0.000496501 48.0466 -0.0478523 47.5557 0.0463876 47.082C0.140627 46.6084 0.373222 46.1733 0.714751 45.8319L45.8319 0.714677C46.2899 0.256765 46.9109 -0.000488281 47.5585 -0.000488281C48.2061 -0.000488281 48.8271 0.256765 49.2851 0.714677C49.743 1.17259 50.0002 1.79365 50.0002 2.44124C50.0002 3.08883 49.743 3.70989 49.2851 4.1678L4.16788 49.285C3.94135 49.512 3.67221 49.692 3.37591 49.8147C3.07961 49.9373 2.762 50.0003 2.44131 49.9998Z" fill="url(#paint0_linear_35_882)"/>
<path id="Vector_2" d="M47.5585 49.9998C47.2378 50.0003 46.9202 49.9373 46.6239 49.8147C46.3276 49.692 46.0585 49.512 45.832 49.285L0.714784 4.1678C0.256871 3.70989 -0.00038147 3.08883 -0.00038147 2.44124C-0.00038147 1.79365 0.256871 1.17259 0.714784 0.714677C1.1727 0.256765 1.79376 -0.000488281 2.44135 -0.000488281C3.08893 -0.000488281 3.71 0.256765 4.16791 0.714677L49.2851 45.8319C49.6266 46.1733 49.8592 46.6084 49.9535 47.082C50.0477 47.5557 49.9994 48.0466 49.8145 48.4928C49.6297 48.9389 49.3167 49.3203 48.9151 49.5885C48.5136 49.8568 48.0415 49.9999 47.5585 49.9998Z" fill="url(#paint1_linear_35_882)"/>
</g>
</g>
<defs>
<linearGradient id="paint0_linear_35_882" x1="24.9998" y1="-0.000488281" x2="24.9998" y2="49.9998" gradientUnits="userSpaceOnUse">
<stop stop-color="#FF0000"/>
<stop offset="1" stop-color="#C70000"/>
</linearGradient>
<linearGradient id="paint1_linear_35_882" x1="25" y1="-0.000488281" x2="25" y2="49.9998" gradientUnits="userSpaceOnUse">
<stop stop-color="#FF0000"/>
<stop offset="1" stop-color="#C70000"/>
</linearGradient>
<clipPath id="clip0_35_882">
<rect width="50" height="50" fill="white"/>
</clipPath>
</defs>
</svg>
