<svg width="567" height="74" viewBox="0 0 567 74" fill="none" xmlns="http://www.w3.org/2000/svg">
<path d="M19.8 17.3V32.7H50.7V48H19.8V72H2.98023e-08V2H54.9V17.3H19.8ZM105.288 35.1C108.488 36.9667 110.955 39.2667 112.688 42C114.422 44.7333 115.288 47.8667 115.288 51.4C115.288 55.8 114.022 59.6667 111.488 63C108.955 66.3333 105.388 68.9 100.788 70.7C96.1883 72.5 90.8883 73.4 84.8883 73.4C78.8883 73.4 73.5883 72.5 68.9883 70.7C64.3883 68.9 60.8216 66.3333 58.2883 63C55.7549 59.6667 54.4883 55.8 54.4883 51.4C54.4883 47.8667 55.3549 44.7333 57.0883 42C58.8216 39.2667 61.2883 36.9667 64.4883 35.1C62.0883 33.4333 60.2216 31.4 58.8883 29C57.6216 26.6 56.9883 23.9333 56.9883 21C56.9883 16.9333 58.1549 13.3667 60.4883 10.3C62.8216 7.16666 66.0883 4.76666 70.2883 3.1C74.5549 1.43333 79.4216 0.599995 84.8883 0.599995C90.3549 0.599995 95.1883 1.43333 99.3883 3.1C103.655 4.76666 106.955 7.16666 109.288 10.3C111.622 13.3667 112.788 16.9333 112.788 21C112.788 23.9333 112.122 26.6 110.788 29C109.522 31.4 107.688 33.4333 105.288 35.1ZM84.8883 14.5C82.4216 14.5 80.4216 15.1667 78.8883 16.5C77.3549 17.7667 76.5883 19.5667 76.5883 21.9C76.5883 24.1667 77.3216 25.9667 78.7883 27.3C80.3216 28.5667 82.3549 29.2 84.8883 29.2C87.4216 29.2 89.4549 28.5667 90.9883 27.3C92.5216 25.9667 93.2883 24.1667 93.2883 21.9C93.2883 19.5667 92.5216 17.7667 90.9883 16.5C89.4549 15.1667 87.4216 14.5 84.8883 14.5ZM84.8883 59.5C88.0883 59.5 90.6216 58.7333 92.4883 57.2C94.4216 55.6 95.3883 53.4667 95.3883 50.8C95.3883 48.1333 94.4216 46.0333 92.4883 44.5C90.6216 42.9 88.0883 42.1 84.8883 42.1C81.6883 42.1 79.1216 42.9 77.1883 44.5C75.3216 46.0333 74.3883 48.1333 74.3883 50.8C74.3883 53.4667 75.3216 55.6 77.1883 57.2C79.1216 58.7333 81.6883 59.5 84.8883 59.5ZM147.283 2V72H127.483V17.3H114.483V2H147.283ZM207.41 56.3V72H152.91V59.6L179.11 35.1C181.643 32.7 183.343 30.6667 184.21 29C185.077 27.2667 185.51 25.5333 185.51 23.8C185.51 21.5333 184.743 19.7667 183.21 18.5C181.677 17.2333 179.443 16.6 176.51 16.6C173.91 16.6 171.51 17.2 169.31 18.4C167.177 19.5333 165.41 21.2 164.01 23.4L149.31 15.2C152.043 10.6667 155.877 7.1 160.81 4.5C165.743 1.9 171.577 0.599995 178.31 0.599995C183.643 0.599995 188.343 1.46666 192.41 3.2C196.543 4.93333 199.743 7.43333 202.01 10.7C204.343 13.9 205.51 17.6333 205.51 21.9C205.51 25.7 204.677 29.3 203.01 32.7C201.41 36.0333 198.277 39.8333 193.61 44.1L180.41 56.3H207.41ZM261.475 73.4C255.808 73.4 250.308 72.7 244.975 71.3C239.642 69.9 235.308 68.0333 231.975 65.7L238.475 51.1C241.608 53.1667 245.242 54.8333 249.375 56.1C253.508 57.3667 257.575 58 261.575 58C269.175 58 272.975 56.1 272.975 52.3C272.975 50.3 271.875 48.8333 269.675 47.9C267.542 46.9 264.075 45.8667 259.275 44.8C254.008 43.6667 249.608 42.4667 246.075 41.2C242.542 39.8667 239.508 37.7667 236.975 34.9C234.442 32.0333 233.175 28.1667 233.175 23.3C233.175 19.0333 234.342 15.2 236.675 11.8C239.008 8.33333 242.475 5.6 247.075 3.6C251.742 1.6 257.442 0.599995 264.175 0.599995C268.775 0.599995 273.308 1.13333 277.775 2.2C282.242 3.2 286.175 4.7 289.575 6.69999L283.475 21.4C276.808 17.8 270.342 16 264.075 16C260.142 16 257.275 16.6 255.475 17.8C253.675 18.9333 252.775 20.4333 252.775 22.3C252.775 24.1667 253.842 25.5667 255.975 26.5C258.108 27.4333 261.542 28.4 266.275 29.4C271.608 30.5333 276.008 31.7667 279.475 33.1C283.008 34.3667 286.042 36.4333 288.575 39.3C291.175 42.1 292.475 45.9333 292.475 50.8C292.475 55 291.308 58.8 288.975 62.2C286.642 65.6 283.142 68.3333 278.475 70.4C273.808 72.4 268.142 73.4 261.475 73.4ZM329.421 73.4C319.021 73.4 310.921 70.5667 305.121 64.9C299.388 59.2333 296.521 51.2 296.521 40.8V2H316.321V40.2C316.321 51.4 320.754 57 329.621 57C338.421 57 342.821 51.4 342.821 40.2V2H362.321V40.8C362.321 51.2 359.421 59.2333 353.621 64.9C347.888 70.5667 339.821 73.4 329.421 73.4ZM403.234 2C409.568 2 415.068 3.06666 419.734 5.2C424.401 7.26666 428.001 10.2667 430.534 14.2C433.068 18.0667 434.334 22.6333 434.334 27.9C434.334 33.1667 433.068 37.7333 430.534 41.6C428.001 45.4667 424.401 48.4667 419.734 50.6C415.068 52.6667 409.568 53.7 403.234 53.7H391.034V72H371.234V2H403.234ZM402.034 38.1C406.101 38.1 409.168 37.2333 411.234 35.5C413.301 33.7 414.334 31.1667 414.334 27.9C414.334 24.6333 413.301 22.1 411.234 20.3C409.168 18.5 406.101 17.6 402.034 17.6H391.034V38.1H402.034ZM495.688 56.7V72H439.488V2H494.388V17.3H459.088V29.1H490.188V43.9H459.088V56.7H495.688ZM532.776 53.4H521.976V72H502.176V2H534.176C540.509 2 546.009 3.06666 550.676 5.2C555.342 7.26666 558.942 10.2667 561.476 14.2C564.009 18.0667 565.276 22.6333 565.276 27.9C565.276 32.9667 564.076 37.4 561.676 41.2C559.342 44.9333 555.976 47.8667 551.576 50L566.676 72H545.476L532.776 53.4ZM545.276 27.9C545.276 24.6333 544.242 22.1 542.176 20.3C540.109 18.5 537.042 17.6 532.976 17.6H521.976V38.1H532.976C537.042 38.1 540.109 37.2333 542.176 35.5C544.242 33.7 545.276 31.1667 545.276 27.9Z" fill="white"/>
</svg>
