<svg width="171" height="23" viewBox="0 0 171 23" fill="none" xmlns="http://www.w3.org/2000/svg">
<path d="M6.04 5.59V10.21H15.31V14.8H6.04V22H0.1V0.999999H16.57V5.59H6.04ZM31.6865 10.93C32.6465 11.49 33.3865 12.18 33.9065 13C34.4265 13.82 34.6865 14.76 34.6865 15.82C34.6865 17.14 34.3065 18.3 33.5465 19.3C32.7865 20.3 31.7165 21.07 30.3365 21.61C28.9565 22.15 27.3665 22.42 25.5665 22.42C23.7665 22.42 22.1765 22.15 20.7965 21.61C19.4165 21.07 18.3465 20.3 17.5865 19.3C16.8265 18.3 16.4465 17.14 16.4465 15.82C16.4465 14.76 16.7065 13.82 17.2265 13C17.7465 12.18 18.4865 11.49 19.4465 10.93C18.7265 10.43 18.1665 9.82 17.7665 9.1C17.3865 8.38 17.1965 7.58 17.1965 6.7C17.1965 5.48 17.5465 4.41 18.2465 3.49C18.9465 2.55 19.9265 1.83 21.1865 1.33C22.4665 0.829999 23.9265 0.579999 25.5665 0.579999C27.2065 0.579999 28.6565 0.829999 29.9165 1.33C31.1965 1.83 32.1865 2.55 32.8865 3.49C33.5865 4.41 33.9365 5.48 33.9365 6.7C33.9365 7.58 33.7365 8.38 33.3365 9.1C32.9565 9.82 32.4065 10.43 31.6865 10.93ZM25.5665 4.75C24.8265 4.75 24.2265 4.95 23.7665 5.35C23.3065 5.73 23.0765 6.27 23.0765 6.97C23.0765 7.65 23.2965 8.19 23.7365 8.59C24.1965 8.97 24.8065 9.16 25.5665 9.16C26.3265 9.16 26.9365 8.97 27.3965 8.59C27.8565 8.19 28.0865 7.65 28.0865 6.97C28.0865 6.27 27.8565 5.73 27.3965 5.35C26.9365 4.95 26.3265 4.75 25.5665 4.75ZM25.5665 18.25C26.5265 18.25 27.2865 18.02 27.8465 17.56C28.4265 17.08 28.7165 16.44 28.7165 15.64C28.7165 14.84 28.4265 14.21 27.8465 13.75C27.2865 13.27 26.5265 13.03 25.5665 13.03C24.6065 13.03 23.8365 13.27 23.2565 13.75C22.6965 14.21 22.4165 14.84 22.4165 15.64C22.4165 16.44 22.6965 17.08 23.2565 17.56C23.8365 18.02 24.6065 18.25 25.5665 18.25ZM44.2848 0.999999V22H38.3448V5.59H34.4448V0.999999H44.2848ZM62.323 17.29V22H45.973V18.28L53.833 10.93C54.593 10.21 55.103 9.6 55.363 9.1C55.623 8.58 55.753 8.06 55.753 7.54C55.753 6.86 55.523 6.33 55.063 5.95C54.603 5.57 53.933 5.38 53.053 5.38C52.273 5.38 51.553 5.56 50.893 5.92C50.253 6.26 49.723 6.76 49.303 7.42L44.893 4.96C45.713 3.6 46.863 2.53 48.343 1.75C49.823 0.969999 51.573 0.579999 53.593 0.579999C55.193 0.579999 56.603 0.839999 57.823 1.36C59.063 1.88 60.023 2.63 60.703 3.61C61.403 4.57 61.753 5.69 61.753 6.97C61.753 8.11 61.503 9.19 61.003 10.21C60.523 11.21 59.583 12.35 58.183 13.63L54.223 17.29H62.323ZM78.5425 22.42C76.8425 22.42 75.1925 22.21 73.5925 21.79C71.9925 21.37 70.6925 20.81 69.6925 20.11L71.6425 15.73C72.5825 16.35 73.6725 16.85 74.9125 17.23C76.1525 17.61 77.3725 17.8 78.5725 17.8C80.8525 17.8 81.9925 17.23 81.9925 16.09C81.9925 15.49 81.6625 15.05 81.0025 14.77C80.3625 14.47 79.3225 14.16 77.8825 13.84C76.3025 13.5 74.9825 13.14 73.9225 12.76C72.8625 12.36 71.9525 11.73 71.1925 10.87C70.4325 10.01 70.0525 8.85 70.0525 7.39C70.0525 6.11 70.4025 4.96 71.1025 3.94C71.8025 2.9 72.8425 2.08 74.2225 1.48C75.6225 0.879999 77.3325 0.579999 79.3525 0.579999C80.7325 0.579999 82.0925 0.739999 83.4325 1.06C84.7725 1.36 85.9525 1.81 86.9725 2.41L85.1425 6.82C83.1425 5.74 81.2025 5.2 79.3225 5.2C78.1425 5.2 77.2825 5.38 76.7425 5.74C76.2025 6.08 75.9325 6.53 75.9325 7.09C75.9325 7.65 76.2525 8.07 76.8925 8.35C77.5325 8.63 78.5625 8.92 79.9825 9.22C81.5825 9.56 82.9025 9.93 83.9425 10.33C85.0025 10.71 85.9125 11.33 86.6725 12.19C87.4525 13.03 87.8425 14.18 87.8425 15.64C87.8425 16.9 87.4925 18.04 86.7925 19.06C86.0925 20.08 85.0425 20.9 83.6425 21.52C82.2425 22.12 80.5425 22.42 78.5425 22.42ZM98.9263 22.42C95.8063 22.42 93.3763 21.57 91.6363 19.87C89.9163 18.17 89.0563 15.76 89.0563 12.64V0.999999H94.9963V12.46C94.9963 15.82 96.3263 17.5 98.9863 17.5C101.626 17.5 102.946 15.82 102.946 12.46V0.999999H108.796V12.64C108.796 15.76 107.926 18.17 106.186 19.87C104.466 21.57 102.046 22.42 98.9263 22.42ZM121.07 0.999999C122.97 0.999999 124.62 1.32 126.02 1.96C127.42 2.58 128.5 3.48 129.26 4.66C130.02 5.82 130.4 7.19 130.4 8.77C130.4 10.35 130.02 11.72 129.26 12.88C128.5 14.04 127.42 14.94 126.02 15.58C124.62 16.2 122.97 16.51 121.07 16.51H117.41V22H111.47V0.999999H121.07ZM120.71 11.83C121.93 11.83 122.85 11.57 123.47 11.05C124.09 10.51 124.4 9.75 124.4 8.77C124.4 7.79 124.09 7.03 123.47 6.49C122.85 5.95 121.93 5.68 120.71 5.68H117.41V11.83H120.71ZM148.806 17.41V22H131.946V0.999999H148.416V5.59H137.826V9.13H147.156V13.57H137.826V17.41H148.806ZM159.933 16.42H156.693V22H150.753V0.999999H160.353C162.253 0.999999 163.903 1.32 165.303 1.96C166.703 2.58 167.783 3.48 168.543 4.66C169.303 5.82 169.683 7.19 169.683 8.77C169.683 10.29 169.323 11.62 168.603 12.76C167.903 13.88 166.893 14.76 165.573 15.4L170.103 22H163.743L159.933 16.42ZM163.683 8.77C163.683 7.79 163.373 7.03 162.753 6.49C162.133 5.95 161.213 5.68 159.993 5.68H156.693V11.83H159.993C161.213 11.83 162.133 11.57 162.753 11.05C163.373 10.51 163.683 9.75 163.683 8.77Z" fill="white"/>
</svg>
