<svg width="439" height="54" viewBox="0 0 439 54" fill="none" xmlns="http://www.w3.org/2000/svg">
<path d="M15.1197 12.616V23.704H37.3677V34.72H15.1197V52H0.86373V1.6H40.3917V12.616H15.1197ZM79.9113 25.432C82.2153 26.776 83.9913 28.432 85.2393 30.4C86.4873 32.368 87.1113 34.624 87.1113 37.168C87.1113 40.336 86.1993 43.12 84.3753 45.52C82.5513 47.92 79.9833 49.768 76.6713 51.064C73.3593 52.36 69.5433 53.008 65.2233 53.008C60.9033 53.008 57.0873 52.36 53.7753 51.064C50.4633 49.768 47.8953 47.92 46.0713 45.52C44.2473 43.12 43.3353 40.336 43.3353 37.168C43.3353 34.624 43.9593 32.368 45.2073 30.4C46.4553 28.432 48.2313 26.776 50.5353 25.432C48.8073 24.232 47.4633 22.768 46.5033 21.04C45.5913 19.312 45.1353 17.392 45.1353 15.28C45.1353 12.352 45.9753 9.784 47.6553 7.576C49.3353 5.32 51.6873 3.592 54.7113 2.392C57.7833 1.192 61.2873 0.591997 65.2233 0.591997C69.1593 0.591997 72.6393 1.192 75.6633 2.392C78.7353 3.592 81.1113 5.32 82.7913 7.576C84.4713 9.784 85.3113 12.352 85.3113 15.28C85.3113 17.392 84.8313 19.312 83.8713 21.04C82.9593 22.768 81.6393 24.232 79.9113 25.432ZM65.2233 10.6C63.4473 10.6 62.0073 11.08 60.9033 12.04C59.7993 12.952 59.2473 14.248 59.2473 15.928C59.2473 17.56 59.7753 18.856 60.8313 19.816C61.9353 20.728 63.3993 21.184 65.2233 21.184C67.0473 21.184 68.5113 20.728 69.6153 19.816C70.7193 18.856 71.2713 17.56 71.2713 15.928C71.2713 14.248 70.7193 12.952 69.6153 12.04C68.5113 11.08 67.0473 10.6 65.2233 10.6ZM65.2233 43C67.5273 43 69.3513 42.448 70.6953 41.344C72.0873 40.192 72.7833 38.656 72.7833 36.736C72.7833 34.816 72.0873 33.304 70.6953 32.2C69.3513 31.048 67.5273 30.472 65.2233 30.472C62.9193 30.472 61.0713 31.048 59.6793 32.2C58.3353 33.304 57.6633 34.816 57.6633 36.736C57.6633 38.656 58.3353 40.192 59.6793 41.344C61.0713 42.448 62.9193 43 65.2233 43ZM113.387 1.6V52H99.1314V12.616H89.7714V1.6H113.387ZM159.919 40.696V52H120.679V43.072L139.543 25.432C141.367 23.704 142.591 22.24 143.215 21.04C143.839 19.792 144.151 18.544 144.151 17.296C144.151 15.664 143.599 14.392 142.495 13.48C141.391 12.568 139.783 12.112 137.671 12.112C135.799 12.112 134.071 12.544 132.487 13.408C130.951 14.224 129.679 15.424 128.671 17.008L118.087 11.104C120.055 7.84 122.815 5.272 126.367 3.4C129.919 1.528 134.119 0.591997 138.967 0.591997C142.807 0.591997 146.191 1.216 149.119 2.464C152.095 3.712 154.399 5.512 156.031 7.864C157.711 10.168 158.551 12.856 158.551 15.928C158.551 18.664 157.951 21.256 156.751 23.704C155.599 26.104 153.343 28.84 149.983 31.912L140.479 40.696H159.919ZM205.326 53.008C201.246 53.008 197.286 52.504 193.446 51.496C189.606 50.488 186.486 49.144 184.086 47.464L188.766 36.952C191.022 38.44 193.638 39.64 196.614 40.552C199.59 41.464 202.518 41.92 205.398 41.92C210.87 41.92 213.606 40.552 213.606 37.816C213.606 36.376 212.814 35.32 211.23 34.648C209.694 33.928 207.198 33.184 203.742 32.416C199.95 31.6 196.782 30.736 194.238 29.824C191.694 28.864 189.51 27.352 187.686 25.288C185.862 23.224 184.95 20.44 184.95 16.936C184.95 13.864 185.79 11.104 187.47 8.656C189.15 6.16 191.646 4.192 194.958 2.752C198.318 1.312 202.422 0.591997 207.27 0.591997C210.582 0.591997 213.846 0.975997 217.062 1.744C220.278 2.464 223.11 3.544 225.558 4.984L221.166 15.568C216.366 12.976 211.71 11.68 207.198 11.68C204.366 11.68 202.302 12.112 201.006 12.976C199.71 13.792 199.062 14.872 199.062 16.216C199.062 17.56 199.83 18.568 201.366 19.24C202.902 19.912 205.374 20.608 208.782 21.328C212.622 22.144 215.79 23.032 218.286 23.992C220.83 24.904 223.014 26.392 224.838 28.456C226.71 30.472 227.646 33.232 227.646 36.736C227.646 39.76 226.806 42.496 225.126 44.944C223.446 47.392 220.926 49.36 217.566 50.848C214.206 52.288 210.126 53.008 205.326 53.008ZM257.487 53.008C249.999 53.008 244.167 50.968 239.991 46.888C235.863 42.808 233.799 37.024 233.799 29.536V1.6H248.055V29.104C248.055 37.168 251.247 41.2 257.631 41.2C263.967 41.2 267.135 37.168 267.135 29.104V1.6H281.175V29.536C281.175 37.024 279.087 42.808 274.911 46.888C270.783 50.968 264.975 53.008 257.487 53.008ZM313.872 1.6C318.432 1.6 322.392 2.368 325.752 3.904C329.112 5.392 331.704 7.552 333.528 10.384C335.352 13.168 336.264 16.456 336.264 20.248C336.264 24.04 335.352 27.328 333.528 30.112C331.704 32.896 329.112 35.056 325.752 36.592C322.392 38.08 318.432 38.824 313.872 38.824H305.088V52H290.832V1.6H313.872ZM313.008 27.592C315.936 27.592 318.144 26.968 319.632 25.72C321.12 24.424 321.864 22.6 321.864 20.248C321.864 17.896 321.12 16.072 319.632 14.776C318.144 13.48 315.936 12.832 313.008 12.832H305.088V27.592H313.008ZM383.679 40.984V52H343.215V1.6H382.743V12.616H357.327V21.112H379.719V31.768H357.327V40.984H383.679ZM413.622 38.608H405.846V52H391.59V1.6H414.63C419.19 1.6 423.15 2.368 426.51 3.904C429.87 5.392 432.462 7.552 434.286 10.384C436.11 13.168 437.022 16.456 437.022 20.248C437.022 23.896 436.158 27.088 434.43 29.824C432.75 32.512 430.326 34.624 427.158 36.16L438.03 52H422.766L413.622 38.608ZM422.622 20.248C422.622 17.896 421.878 16.072 420.39 14.776C418.902 13.48 416.694 12.832 413.766 12.832H405.846V27.592H413.766C416.694 27.592 418.902 26.968 420.39 25.72C421.878 24.424 422.622 22.6 422.622 20.248Z" fill="white"/>
</svg>
