<svg width="252" height="430" viewBox="0 0 252 430" fill="none" xmlns="http://www.w3.org/2000/svg">
<path d="M249.785 166.804L248.052 165.991V168.661L246.656 170.234L244.145 173.965L242.748 174.902L238.841 179.622L237.268 182.133L235.393 186.341L233.36 186.677L231.486 185.58L230.372 180.577L230.673 174.813L231.946 169.456L235.04 164.453L241.316 155.065L245.064 147.427L245.524 142.07L244.923 140.373L243.827 141.469L241.953 146.136L239.106 150.857L234.898 154.305L230.054 158.972L222.841 167.423L221.444 167.299L220.984 165.85L220.807 162.402L221.267 155.984L223.477 148.806L227.384 140.832L232.565 134.415L238.982 128.934L239.584 127.661L238.823 127.06L235.553 128.757L232.883 130.49L228.339 134.397L222.699 139.4L218.668 144.881L214.743 152.059L212.586 157.876L211.95 163.657L211.649 171.472L213.523 179.622L215.397 186.677L219.004 197.762L221.338 211.057L222.735 221.206V226.686L222.133 232.45L221.196 237.171L219.446 242.475L212.869 250.749L206.151 256.866L197.541 261.711L189.266 262.17L188.17 258.139L185.2 252.322L181.133 246.718L178.464 243.412L174.892 238.567L167.202 231.23L159.387 224.812L155.957 222.143L145.172 214.841L129.685 201.846L121.234 191.362L111.987 176.21L109.476 167.123L110.113 161.483L111.386 160.386L114.657 162.596L119.837 165.107L124.045 164.93L128.871 167.14L134.052 170.287L136.721 172.444L140.169 174.831L143.74 175.291L144.554 173.717L143.617 173.54L142.52 174L140.788 172.904L139.25 170.57L137.04 166.963L132.796 163.056L128.589 161.483L126.255 161.023L126.732 159.785H130.003L133.786 161.023L139.267 164.63L141.778 165.726L142.715 164.453L141.141 162.296L136.898 158.512L130.321 155.082L122.383 151.988L120.809 150.715L122.383 149.619L125.954 151.352L132.531 152.448L139.568 155.259L143.298 157.133L149.875 158.07L154.596 157.434L157.23 156.196L160.837 153.986L162.41 152.466L162.587 151.37L161.12 151.493L159.723 152.943L155.055 154.481L150.989 155.118L147.541 154.658L144.235 152.024L141.265 148.541L137.694 145.907L132.354 144.81L127.209 143.078L124.999 141.681L125.176 140.443L127.209 140.744H131.753L136.297 140.443H140.965L143.475 139.984L145.508 141.681L148.779 142.494H151.449L152.686 141.557L150.529 140.921L147.86 139.188L145.049 136.554L140.505 134.167L136.774 133.707L133.344 133.248L132.071 132.487L134.582 131.091H138.648L141.795 132.028L144.889 133.601L149.893 135.758L154.896 135.935L157.566 134.662L158.326 132.965L156.293 132.028L152.085 131.851L148.479 130.613L145.349 127.944L141.902 126.211L137.358 125.451L133.451 124.054L131.753 121.844L132.054 120.748L134.564 121.261L137.711 122.198L139.585 123.594L142.255 123.895L142.556 122.498L139.762 120.288L138.949 118.29L142.715 118.891L146.286 120.766L150.83 121.278L152.58 124.549L157.248 127.36L157.495 127.325L158.521 126.901L159.758 126.14L159.157 125.203L157.407 125.327L155.833 123.17L152.686 118.326L147.206 113.446L141.601 110.935L140.027 109.061L136.58 104.995L133.433 103.298L132.973 101.724L134.37 100.787L137.676 101.547L144.218 103.421L147.365 104.518L149.398 107.364L152.669 109.061H155.179L158.485 109.998L162.092 109.362L163.489 108.124L161.456 106.392L158.485 105.631L155.038 105.172L153.005 103.439L150.335 99.5319L149.698 97.0213L146.251 93.9273L142.52 91.5405L138.277 88.9062L133.61 84.5392L133.309 83.2663H134.37L140.487 88.1106L146.728 91.7173L150.034 94.2279L154.242 98.1352L158.008 100.168L160.183 100.805L161.279 99.0722L159.705 98.4711L156.435 95.5008L155.497 92.1947L152.068 88.4642L149.221 86.0774L147.824 82.506L142.98 75.2926L136.403 69.5112L136.103 67.6372L138.436 67.9377L141.742 69.635L147.046 71.845L152.527 72.1456L156.594 74.055L160.961 74.8152L164.691 73.7191L164.391 72.1456L160.147 71.2085L156.417 69.5112L148.903 65.9045L144.836 63.6945L142.662 61.0602L143.422 60.1232L144.518 60.8834L146.215 61.5199L148.425 61.6967H152.032L155.126 61.3608L159.847 61.0602L163.453 62.4569L167.184 65.1266L168.757 65.5863L168.934 64.1896L167.661 62.9166L163.931 59.469L158.114 56.4988L153.906 56.0391L145.933 55.5794L144.076 53.3694L140.01 49.303L135.466 46.209L133.769 44.6355L135.165 43.5393L137.322 44.4764L141.23 46.5096L145.65 48.0831L151.59 49.4798H156.735L160.978 54.2004L164.426 56.2336L165.663 54.9606L160.996 48.0831L153.659 42.7791L147.541 41.3293L142.361 35.9016L137.817 33.2319L131.576 31.6584L135.024 28.6881L141.141 26.6549L145.685 25.2582L146.746 23.8615L146.145 22.7653L143.634 22.1288L141.265 21.6692L123.603 22.0051L120.456 18.5221L116.884 16.1884L112.341 14.1552L106.4 13.2181H101.255L99.8585 11.344L95.0142 6.1638L89.1975 0.859802L85.6261 6.80028L85.4493 8.67436L87.1466 10.8844L87.3234 12.7584L86.0858 13.8546L82.1432 14.1552L74.9651 12.122L67.9108 10.6015L64.64 10.7252L59.3006 11.8214L59.9371 13.6955L62.9073 13.5717L64.1449 13.7839L64.1096 15.4458L62.3769 15.8348L60.1316 15.5342L56.737 16.2591L54.1911 17.0724L52.1579 17.1961L51.5214 18.0801L52.2463 19.3177L53.7844 19.6536L55.2342 19.2293L56.8961 18.5044L58.5934 18.416L62.2001 18.5928L64.9582 19.4415L68.229 20.2548L73.0203 22.4117L73.4446 23.4372L72.9319 24.2504L70.6865 25.0637L69.3252 25.7002L66.903 27.3091L63.2079 29.2716L58.7172 32.454L53.5016 34.5402L49.4352 37.2099L45.74 38.8188L42.2571 39.6674L39.1984 39.7558L34.9906 39.8442L33.3817 40.2685L32.4447 42.231L31.7198 44.3526L30.9065 45.8024L28.8733 48.861L26.9108 52.2556L25.6025 53.9175L25.4788 55.8269L25.6025 58.4966V61.3431L27.3352 62.9166L28.8733 63.7299L30.6944 63.6061L33.6646 62.7928L37.0238 61.7674L41.5676 59.9464L43.3886 60.0348L43.8129 61.184L43.3886 62.2801L41.8504 63.0934L37.2183 64.826L33.7353 65.8515L33.0635 67.0007L32.9397 68.2383L34.0889 69.2637L36.5111 69.5643H38.4735L40.9311 69.4759L43.6008 68.8394L47.4727 66.8062L50.0186 66.2935L52.1756 65.8692L53.8375 66.4172L56.2596 66.2935L58.6464 66.594L60.6089 67.7432L63.6676 68.0438L67.6632 69.2814L69.8202 69.582L73.1794 68.9808L77.4756 69.2814L79.3497 70.0063L80.3752 71.7389L80.163 73.9843L79.6503 76.7424L78.6248 79.9248L77.1751 83.9204L75.7253 88.2874L74.1872 92.2831L73.1617 95.0412L69.6788 100.469L65.4709 105.773L61.6874 110.989L56.8961 115.78L52.4761 119.51L49.665 122.481L48.1799 127.36L46.129 129.782L43.4947 131.656L40.3123 134.291L35.4326 137.261L31.3131 139.33L28.6788 142.335L26.8047 144.775L24.9307 145.924L22.2963 147.233L20.5991 146.844L17.2399 145.305L13.5094 142.883L8.02858 140.461L1.87595 137.243L-1.30645 134.821L-5.24909 131.639L-9.58069 128.067L-14.2482 126.37L-18.3677 125.645L-23.6363 126.741L-27.3668 128.828L-30.5845 131.073L-32.2465 135.192L-33.3957 138.375L-34.704 143.255L-36.1891 146.225L-37.6742 150.769L-37.8864 156.196L-39.1947 159.379L-40.6798 164.435L-41.9881 169.492L-44.4103 174.212L-45.7186 178.88L-46.4789 184.696L-48.5651 189.576L-49.8734 192.37L-50.0502 195.181L-50.227 199.901V208.14L-51.1641 211.535L-50.616 214.505L-50.8281 219.385L-49.1309 223.292L-47.8225 224.229L-45.4004 223.469L-43.155 221.435L-39.9373 217.528L-37.1261 213.037L-36.03 209.307L-36.7549 206.301L-37.6919 202.571L-38.8411 198.08L-39.9373 193.377L-40.5384 189.806V186.447L-39.7781 182.663L-37.9041 176.882L-36.03 173.876L-34.3327 172.356L-33.0244 170.323L-30.6022 170.11L-29.453 169.386L-27.7557 167.847L-25.8817 166.185L-24.1844 163.94L-23.4595 161.306L-22.8584 159.06L-22.6816 156.055L-22.1335 153.421L-20.8252 151.759L-19.5169 151.37L-17.8196 151.918L-15.3974 153.226L-12.7631 156.232L-9.95198 160.351L-6.76958 164.082L-3.37502 167.087L-0.369415 169.509L2.60082 170.818L3.53787 172.692L2.60082 173.629L-0.581577 172.904L-5.07229 172.515L-10.889 171.366L-16.4936 170.27L-23.2473 170.057L-27.19 170.27L-30.1956 172.144L-33.378 174.937L-36.0123 179.428L-38.0455 184.52L-38.2577 188.25L-37.1085 195.004L-34.4741 203.614L-33.1658 210.368L-31.5039 216.945L-30.3547 221.577L-29.8066 225.909L-28.3215 230.788L-27.1723 238.267L-26.0761 240.901L-23.2297 243.146L-20.5953 245.781L-17.6251 250.289L-15.5389 255.558L-12.3565 260.225L-7.68893 264.716L-4.31205 266.802L-2.06669 266.979L-0.192616 266.431L0.956585 263.797L2.22955 261.551L2.98978 258.369V251.067L2.05275 248.981C1.87595 248.981 1.87595 247.673 1.87595 247.496L1.48698 246.187L-0.051178 243.942L-2.86229 241.131L-8.07789 238.886L-9.98733 238.285L-10.3233 235.102L-10.1465 233.069L-13.7178 228.949L-15.9632 223.681L-17.8373 216.202L-19.3577 209.289L-21.939 203.862L-22.8761 197.285L-21.3909 193.342L-18.7566 191.857H-16.7234L-13.7178 194.491L-9.38622 197.125L-4.89549 198.787L5.97771 204.056L11.2463 207.062V209.855L16.0907 212.648L22.2963 214.735H35.2381L34.3011 217.157L33.753 218.465L35.4149 221.612L38.5973 226.333L43.6892 231.389L49.8418 238.143L55.1104 242.811L64.9582 250.36L72.9319 254.639L78.9254 257.821L86.6162 263.036L93.7059 268.093L99.8232 273.273L106.188 281.883L106.489 285.49L107.938 289.221L111.846 292.032L115.417 293.428L117.627 293.128L119.377 291.431L121.888 288.761L122.489 285.154L125.459 280.009L126.096 276.067L126.573 271.7L126.874 268.252L127.846 266.095L129.844 265.123H131.753L131.877 266.573L130.48 268.093L129.243 271.399L128.306 273.432V275.943L127.97 281.247L127.209 283.917L124.876 287.948L121.729 293.128L118.599 298.768L116.743 306.105L115.806 313.796L116.743 322.371L117.981 327.374L120.951 333.951L124.734 341.766L127.705 347.883L131.771 354.301L136.615 360.241L137.552 362.274V363.671L136.916 365.404L135.219 368.215L132.549 371.945L127.068 379L121.587 384.94L116.584 390.421L114.427 391.694L110.007 393.391L107.373 395.902L105.976 398.748L102.829 402.655L99.2751 406.563L94.9081 411.107L92.2384 415.774L90.6649 420.495L89.7279 424.402L89.9047 427.549L91.7788 429.547H98.6563L101.627 429.246L104.738 427.39L108.805 425.516L109.441 423.942H110.838L112.995 423.005L115.028 421.096L116.142 413.617L115.505 412.044L115.205 410.47L116.319 410.771L117.539 411.107L118.811 410.169L120.845 408.897L123.002 406.085L125.671 402.302L127.068 398.872L127.369 396.061L129.119 394.788L131.629 393.391L133.663 392.154L135.36 388.724L138.967 384.958L145.703 378.717L150.83 375.287L156.01 372.44L157.23 371.203L157.707 369.93L158.804 368.533L158.043 366.677L157.884 363.229L157.195 360.011L156.382 358.137L154.596 355.079L151.749 351.507L150.353 348.838L150.052 346.026V342.261L150.689 340.104L152.386 334.287L154.118 331.476L155.993 330.38L159.422 328.223L163.489 324.74L168.97 320.072L172.7 316.165L176.466 311.798L180.373 307.378L183.184 302.41L185.518 298.167L187.728 293.322L189.302 287.965L189.779 282.997L190.08 279.214L191.353 277.976L192.749 277.64L193.987 278.453L195.083 281.088L195.384 284.694L195.896 288.124L195.56 290.458L195.26 294.065V301.756L196.197 307.82L197.293 309.393L198.23 309.27L198.69 308.174L198.053 305.663V301.42L199.326 297.848L199.927 292.668L200.564 289.061L201.377 287.364H202.314L203.074 288.124L203.835 291.095L204.471 293.941L204.171 298.432L203.234 304.549L200.387 310.49L197.753 316.13L196.179 320.974L195.879 323.944L196.179 327.374L197.275 330.68H199.309L200.369 329.23L199.768 327.657L199.309 324.846L201.165 322.335L203.34 319.365L204.789 316.572L208.219 311.091L211.03 306.087L212.268 300.607L213.364 293.393V286.25L211.967 281.247L209.156 277.34L208.82 275.483L210.093 274.847L211.667 275.607L213.7 278.118L216.211 282.661L217.271 287.965L217.908 295.02L219.481 299.899L219.658 300.023L221.815 304.867L223.212 305.38L223.848 304.107L223.689 303.347L222.628 299.74L222.469 296.133L222.628 290.829L223.565 284.889V281.919L223.23 279.408L220.719 274.387L218.562 270.78L219.322 269.384L222.293 268.747L226.359 266.891L230.726 264.557L234.633 261.127L239.637 254.373L242.483 248.769L244.817 243.429L245.577 234.855L245.754 227.164L244.516 217.652L243.067 210.774L241.829 203.72L241.069 196.383L241.67 191.715L242.943 185.899L245.577 180.117L249.343 174.177L250.74 170.393L251.04 168.519L249.785 166.804ZM37.0768 53.5816L35.8392 54.8192L34.1066 55.7916L31.7728 56.3043L30.9595 55.7916L30.659 54.1296L31.3485 51.7959L33.0104 49.4975L34.3718 48.8256L35.6094 48.9494L37.0945 50.187L37.7663 51.2832L37.0768 53.5816ZM43.1764 52.0611L42.7521 52.2732L41.9035 52.3086L41.2316 51.9727L40.6835 51.3362L40.7719 50.576L41.4084 49.5505L41.9212 49.2146H42.593L43.1941 49.3384L43.4063 49.9748L43.4947 51.0887L43.1764 52.0611ZM50.7435 59.027L50.107 59.3276H49.2937L48.834 59.08L48.5865 58.3905L48.6749 57.5419L49.1346 57.0292L49.7357 56.9938L50.3722 57.1706L50.6728 57.6303L50.8849 58.3905L50.7435 59.027ZM65.2057 37.1215L64.2333 37.3867L63.0488 37.6872L61.7404 38.7834L58.8056 40.5691L54.7745 41.6652L52.264 42.3017L49.8418 42.4785L48.6042 42.3548L50.5667 40.6928L54.1734 38.9602L57.7801 37.3513L61.21 35.7424L62.7836 34.9822L63.9681 34.8054L64.9405 35.0176L65.7008 36.2552L65.2057 37.1215ZM-44.0921 213.073L-45.365 212.772L-46.0015 211.535L-44.7285 210.898L-43.6147 211.022L-43.3141 212.118L-44.0921 213.073ZM-27.6673 147.445L-28.5513 150.751L-29.7005 154.481L-31.7337 157.628L-32.8299 157.929L-33.2189 157.08V155.418L-33.0067 153.173L-32.1934 148.93L-30.4077 145.836L-29.4707 144.74L-28.1093 144.351L-27.5966 145.111L-27.6673 147.445ZM-18.6152 134.998L-20.6484 135.758L-22.5932 135.97L-23.7777 135.511L-24.0783 134.662L-23.7424 133.513L-22.7169 132.788L-20.5953 132.54L-19.4992 132.452L-18.7389 132.664L-18.0671 133.301L-18.0317 134.026L-18.6152 134.998ZM-2.03133 157.381L-2.45565 157.416L-3.48109 156.78L-4.91318 155.966L-6.15078 154.941L-7.29998 153.792L-7.81269 153.155L-7.93645 152.218L-7.68893 151.759L-7.26462 151.794L-6.53973 151.918L-5.72646 152.643L-4.78942 153.491L-3.30429 154.375L-2.42029 155.436L-1.87222 156.249L-1.83685 156.974L-2.03133 157.381ZM-29.9127 179.658L-30.6729 180.718L-31.4332 181.019L-31.9459 180.595L-31.9105 179.074L-30.6376 176.864L-30.2486 176.228L-29.6121 175.927L-29.011 176.316V177.589L-29.4 178.473L-29.9127 179.658ZM-24.6087 219.102L-24.8562 219.491H-25.1568L-25.7049 219.031L-26.1292 218.218L-26.801 216.733L-27.7734 214.788L-28.7458 211.729L-29.2585 208.847L-29.3469 205.488L-28.8873 202.182L-28.6397 201.793H-28.1801L-27.7204 202.217L-27.2607 204.215L-27.2253 206.248L-26.4121 208.83L-25.4397 211.588L-25.0153 214.01L-24.4142 217.952L-24.6087 219.102ZM-5.67342 255.222L-5.16069 255.098L-3.92309 255.363L-3.37502 255.965L-3.25126 256.689L-3.37502 257.538L-4.09989 258.086L-4.98389 257.927L-5.62038 257.326L-5.88558 256.018L-5.67342 255.222ZM6.59651 198.045L5.32355 198.133L3.66162 197.886L2.51242 197.373L-0.157253 195.711L-2.79158 193.749L-5.76182 191.963L-6.78725 191.203L-5.42589 191.167L-3.94078 191.715L-1.39486 192.352L0.938908 193.501L3.66162 194.686L5.60642 195.57L6.63187 196.507L6.80867 197.355L6.59651 198.045ZM20.7228 161.447L18.9371 166.451L17.3636 171.242L14.6055 174.672L13.2088 175.733L11.7237 176.281L10.8751 175.68L10.7867 174.583L11.9712 173.311L13.2088 171.277L14.7823 167.847L15.7194 164.577L16.568 161.359L18.2299 158.265L19.3438 156.691L20.2808 156.426L21.1295 156.762L21.3947 157.787L20.7228 161.447ZM88.8085 62.1564L90.2052 60.3707L91.8141 58.8502L93.2639 57.8778L94.3247 57.7894L95.0496 58.2491V59.5574L94.6606 61.0072L93.0517 62.5453L91.1423 63.7299L89.1975 64.2426L88.2604 63.942L88.1367 63.1818L88.8085 62.1564ZM83.1332 29.2185L84.4946 28.7588L85.4316 28.3345L86.6162 28.7588L87.0052 29.6075L86.1212 30.6329L84.8836 31.0926L83.3984 31.181L82.8504 30.1556L83.1332 29.2185ZM71.323 40.2155L70.7749 38.7304L71.5882 37.0684L73.3739 35.5833L76.2204 35.4596L78.3066 35.8485L79.9155 36.9624L80.7288 38.8718L81.4006 40.905L81.2768 42.6907L79.4912 43.3625H77.5817L75.2833 42.4255L73.2501 41.3293L71.323 40.2155ZM78.2889 61.9972L75.8668 62.5453H73.6921L73.3032 61.8204L73.8512 61.0602L74.4877 60.6712L78.7309 57.6656L81.3122 56.0568L82.8857 55.0844H83.4338L83.5222 56.2336L82.4614 57.0822L81.9487 58.8325L80.6404 60.8657L78.2889 61.9972ZM50.0186 139.595L49.718 139.135L49.8064 137.986L50.5667 137.137L53.2364 136.041L58.8056 134.308L64.3748 133.619H67.7693L70.5628 134.22L73.1971 135.528L75.2833 137.562L75.4071 138.711L75.1596 139.524L74.2756 139.701L72.9142 139.524L70.828 138.923L68.8655 138.339L66.4433 138.074H63.4377L60.8918 138.039L58.6464 138.251L56.1359 138.675L54.138 139.223L52.1932 139.648L50.9203 139.736L50.0186 139.595ZM85.2548 254.798L82.4084 253.012L77.6171 249.83L70.1915 244.826L67.1859 242.793L64.0035 240.3L60.5205 237.118L57.9746 235.12L54.916 232.15L52.9181 230.063L51.6805 228.154L51.2208 225.855L51.3092 223.734L52.1225 222.921L53.5192 223.009L55.7292 224.335L58.0984 226.633L59.8487 228.755L61.7228 230.629L63.5438 232.874L65.8422 235.385L68.0168 237.807L75.1419 243.995L79.0845 247.513L82.6028 250.696L85.4493 253.366L85.9974 254.25L86.3864 254.886L85.2548 254.798ZM87.1643 157.752L86.2803 158.265L84.1233 158.3L82.6736 157.964L81.8603 156.903L81.1884 156.055V154.693L82.2492 153.332L83.8581 152.059L85.3786 151.847L86.7753 152.236L87.1996 152.996L87.3764 154.693L87.5886 156.479L87.1643 157.752ZM91.4428 87.7924L90.5588 91.0632L88.561 96.2788L85.8913 100.699L82.9211 106.215L78.1652 112.88L74.5584 116.664L72.0479 117.636L71.2346 117.601L71.1108 116.964L71.8711 115.179L74.9297 110.458L77.4403 105.278L79.6856 100.823L83.6813 93.0964L87.4648 87.0675L89.4096 85.1934L90.8948 84.9459L91.5312 85.9713L91.4428 87.7924ZM100.159 65.1266L99.6994 66.2758L98.0375 68.2206L95.7391 69.3168L93.4407 70.2538L91.0539 70.2892H89.5688L89.056 69.5996L89.6041 68.6272L90.9124 68.0261L93.2108 66.9123L95.8452 65.3034L97.0828 64.4194L98.9568 63.5177L100.141 63.8183V65.1266H100.159ZM112.588 136.748L111.739 136.996L110.643 136.907L109.918 136.183L110.095 135.546L110.82 135.033L111.916 134.945L112.853 135.705L112.889 136.342L112.588 136.748ZM113.861 132.593H112.588L111.899 132.205V131.267L112.199 130.631L112.871 130.419H113.773L114.621 130.967L114.71 131.639L113.861 132.593ZM116.195 126.176L115.329 126.6L114.445 126.724L113.507 126.512L113.207 125.875V125.115L113.967 124.567L114.904 124.39H115.806L116.354 124.85L116.478 125.575L116.195 126.176ZM117.379 120.783L116.23 121.119L114.957 121.084L114.285 120.624L114.25 120.111L114.462 119.351L115.47 118.891L116.584 118.732L117.521 119.192L117.857 120.076L117.379 120.783ZM120.137 113.234L119.501 114.083L118.9 114.843L117.715 115.09H116.531L115.505 114.578L115.417 113.764L116.142 113.004L116.69 112.368L117.503 112.067L118.811 111.678H119.837L120.297 112.226L120.137 113.234ZM121.835 106.904L121.287 107.788L120.314 107.965L119.289 108.23L118.016 108.195L117.468 107.559L117.556 106.622L117.981 105.985L118.829 105.384L120.137 105.207L121.322 105.455L121.835 106.18V106.904ZM123.62 102.237L122.312 102.785L121.287 103.121H120.014L119.501 103.033L118.865 102.82L118.529 102.184L118.688 101.371L119.536 100.61L120.261 100.221L121.075 99.8855L122.224 99.8501L123.338 100.239L123.797 101.123L123.62 102.237ZM123.797 94.9704L123.338 95.7307L122.524 96.4025L121.34 96.8268L119.943 96.9506L118.794 96.7915L118.493 96.102L118.67 95.5539L119.13 95.218L121.163 94.1572L122.135 93.945L123.338 94.0688L123.797 94.4931V94.9704ZM119.837 77.7855H120.562L120.951 77.538L121.11 76.7777L121.269 76.1943L121.623 75.77L122.259 75.7346L123.019 75.9468L123.709 76.3357L123.797 77.149L123.709 78.4573L122.701 79.3413L121.375 79.9778L120.827 79.8894L120.279 79.6772L119.731 78.9877L119.642 78.2275L119.837 77.7855ZM119.837 72.3577V71.7212L120.403 71.1732L121.287 70.8372L122.347 70.8019L122.984 71.014L123.161 71.5621L122.807 72.1102L122.259 72.7113L121.357 72.9235H120.42L119.837 72.3577ZM119.89 89.5427L120.65 89.083L121.552 88.8708L122.436 88.7824L123.072 88.8178L123.32 89.2068V89.8432L123.019 90.5151L122.418 91.1869L120.933 91.8234L120.208 91.735L119.536 91.5228L119.36 90.798L119.501 89.9847L119.89 89.5427ZM123.709 84.3271L123.497 84.8752L122.56 85.5116L121.287 85.9713L120.579 85.7945L119.89 85.4056L119.766 84.716L119.855 83.8674L120.367 83.3547L121.092 82.842L122.153 82.6298L123.055 82.5944L123.656 82.7712L123.868 83.3724L123.709 84.3271ZM124.045 66.3642L123.921 67.0891L123.461 67.7256L122.701 68.0261L121.976 68.2029L121.34 68.2913L120.491 68.2029L120.279 67.6902L120.491 67.0184L121.004 66.5587L121.57 66.2581L122.507 65.6216L123.479 65.657L124.045 66.3642ZM122.736 60.1232L123.249 60.4237L123.338 61.1486L123.285 61.8381L122.489 62.563L121.729 62.8636L121.216 62.7752L120.827 62.563V61.8735L120.862 61.1486L121.41 60.5652L121.923 60.2646L122.736 60.1232ZM121.746 56.6048L121.534 57.3651L120.968 57.7894L120.456 58.09L119.766 58.1784L119.218 57.8424L119.094 57.2413L119.342 56.7286L119.855 56.0391L120.367 55.7916L121.039 55.7562L121.605 56.0921L121.746 56.6048ZM114.798 42.8852L116.036 42.7968L117.768 42.1249L119.342 41.789L120.65 41.7006L121.322 42.3371L120.385 43.7338L119.448 43.9813L117.892 44.5294L115.859 45.6786L113.914 46.704L111.669 47.6411L110.909 47.7295L110.272 47.5173L110.36 46.5803L110.025 45.6963V44.0874L110.749 42.2664L111.757 41.1702L112.411 40.3216L113.083 39.4729H114.109L114.816 40.1978L114.657 41.9835L114.798 42.8852ZM114.073 26.0008L114.533 26.3013L114.374 26.761L113.684 27.5743L112.747 27.6627L111.633 27.5036L110.997 27.203L110.537 26.6549L111.085 26.1952L111.881 25.8593L113.119 25.824L114.073 26.0008ZM108.221 19.4238L110.343 19.2116L111.492 19.6006L112.394 20.0603L112.429 20.8205L111.669 21.1564L110.484 21.2448L109.335 21.1564L108.433 20.9796L107.673 20.4316L108.221 19.4238ZM124.646 239.858L123.62 240.795L122.683 241.856L121.746 243.818L121.446 245.18L120.809 245.692L119.572 245.533L118.971 244.808L119.183 242.227L119.855 238.992L120.191 237.206L121.004 234.961L121.605 234.289L122.489 234.112H123.673L124.186 234.589L125.07 235.898L125.247 238.408L124.646 239.858ZM126.679 209.166L121.322 206.354L118.529 203.685L113.861 199.017L109.618 193.66L105.887 187.596L102.917 180.082L101.68 174.902L102.263 171.931L103.96 171.472L105.693 172.285L106.807 175.379L107.744 179.923L109.441 184.643L113.861 191.521L119.802 200.273L126.679 209.166ZM127.068 300.465L125.866 303.771L125.282 305.38L124.169 307.891L123.32 310.826L123.072 311.674L122.772 312.222H121.959L121.322 310.313L121.287 308.138L121.746 305.168L122.807 301.102L124.557 298.591L126.131 296.646L127.528 296.469L127.917 297.742L127.068 300.465ZM133.256 344.877L132.955 344.913L132.407 344.665L131.382 343.18L129.861 340.669L129.137 339.007L128.712 336.709V334.587L128.801 333.315L129.101 332.926H129.773L130.498 333.226L131.435 334.322L132.125 336.232L132.584 338.778L132.62 340.811L132.655 341.536L133.044 342.508L133.433 344.471L133.256 344.877ZM101.892 418.267L101.255 419.504L100.495 420.654L99.2574 421.467L98.0728 421.715H97.5601L97.012 421.29L96.8352 420.406L97.0474 419.292L97.6839 418.019L99.4165 416.287L100.725 415.473L101.662 415.438L102.139 415.827L102.263 416.711L101.892 418.267ZM113.525 399.508L112.871 400.392L112.075 400.852L111.103 401.188L110.378 400.976L109.954 400.216L110.042 399.455L110.767 398.554L112.217 397.67L113.278 397.493L113.79 397.793L113.932 398.554L113.525 399.508ZM139.497 373.607L137.623 376.365L135.112 379.3L132.266 382.058L129.26 385.205L126.449 387.751L124.239 389.749L123.002 390.562L122.188 390.527L121.799 389.891L121.976 388.83L125.424 385.011L130.25 379.795L136.12 373.89L137.216 372.706L138.878 371.645L139.479 371.768L139.974 372.405L139.497 373.607ZM150.317 365.245L151.042 364.979L151.979 365.015L152.403 365.227L152.439 365.687L152.068 366.288L151.219 367.048L150.459 367.897H149.946L149.363 367.561L149.221 366.836L149.469 366.111L150.317 365.245ZM181.646 279.797L181.469 281.194L181.045 282.502L180.78 283.687L179.896 284.199L179.083 283.987L178.676 283.227L178.411 280.557L176.625 278.1L176.466 276.067L177.474 274.794L178.535 274.458L179.56 274.546L180.409 275.306L181.381 276.544L181.646 277.941V279.797ZM234.509 231.283L234.421 233.281L233.625 237.648L232.512 241.378L231.239 244.649L229.329 248.203L227.155 251.262L223.884 255.081L220.153 258.652L218.244 259.112L217.218 258.652L217.059 257.29L217.873 255.469L218.969 253.472L220.967 250.837L223.124 247.902L225.157 244.72L227.155 241.449L228.675 238.267L229.577 234.996L230.337 231.266L230.514 227.111L230.673 223.38L230.425 220.109L230.036 216.326L229.7 212.755L229.488 210.757L230.584 209.661L231.309 210.05L231.857 211.782L232.954 215.212L233.855 219.332L234.492 223.274V231.283H234.509Z" fill="rgb(72, 72, 72)"/>
</svg>
