<svg width="24" height="24" viewBox="0 0 24 24" fill="none" xmlns="http://www.w3.org/2000/svg">
<g id="ferrari_logo_icon_145829 2">
<path id="Vector" d="M11.0813 0.956164L11.0631 0.760324L10.7837 0.421444L10.6983 0.396484L10.6388 0.481924L10.6484 0.583684L10.5543 0.669124L10.5447 0.787204L10.6551 0.846724L10.8096 0.957124H11.0813V0.956164ZM13.2327 19.0358L13.1175 18.817L12.9629 18.4992L12.84 18.167L12.7498 17.7936L12.7104 17.473V17.1619L12.7431 16.7952L12.7844 16.6109L12.7354 16.4544L12.6346 16.3738L12.432 16.224L12.289 16.1222L12.2621 15.9264L12.1949 15.7171L12.0682 15.5117L11.9319 15.337L11.761 15.1738L11.544 15.0096L11.3002 14.8272L11.1706 14.7648L11.042 14.7254L10.9335 14.7437L10.8394 14.8061L10.7981 14.9078L10.826 15.0922L10.92 15.505L11.0832 16.0493L11.2196 16.3747L11.402 16.7894L11.5316 17.0333L11.7293 17.3933L11.9664 17.7946L12.1536 18.0528L12.3101 18.2621L12.3168 18.3773L12.2957 18.4714L12.2084 18.5059L11.9453 18.5194L11.4845 18.4915L11.1044 18.4426L10.7703 18.383L10.3642 18.2678L10.1588 18.1776L10.0224 18.1181L9.86788 18.0902L9.69028 18.097L9.5962 18.1382H9.4666L9.16036 18.0902L8.98564 18.0307L8.7946 18.0173L8.49028 18.0106L8.25988 17.9894H8.04772L7.83844 18.0029L7.6954 18.0624L7.59364 18.0902L7.55908 18.1382L7.5658 18.2333L7.66276 18.3898L7.84516 18.6413L7.95364 18.6874L8.12452 18.8093L8.32036 18.9178L8.53252 18.9869L8.83684 18.9936L9.10852 18.9658L9.33892 18.913L9.53476 18.8506L9.61732 18.8918L9.65668 18.9725L9.7258 18.9936L9.8938 18.9869L10.106 19.0013L10.2144 19.0358L10.3431 19.0013L10.7626 19.0541L11.0487 19.0954L11.5162 19.1971L11.857 19.2979L12.194 19.4131L12.4906 19.5494L12.6058 19.632L12.912 19.6454L13.0752 19.6042L13.1626 19.4266L13.2567 19.2096L13.2327 19.0358ZM8.44036 18.3398L8.41924 18.3878L8.38276 18.432L8.353 18.4416L8.2906 18.4435L8.23492 18.4272L8.20996 18.4061L8.17348 18.36L8.1754 18.3187L8.19652 18.289L8.26756 18.2659L8.35012 18.2496L8.41252 18.2477L8.44228 18.2659L8.449 18.3005L8.44036 18.3398ZM11.7428 18.7613L11.7178 18.7939L11.6391 18.7987L11.5028 18.7757L11.3828 18.7546L11.258 18.7478L11.138 18.7382L10.8634 18.6691L10.6464 18.6019L10.4919 18.551L10.4688 18.5069L10.4756 18.4589L10.5053 18.4474L10.7079 18.5117L10.7981 18.5482L10.8922 18.5693L11.0074 18.5856L11.1984 18.6067L11.3645 18.6317L11.521 18.6432L11.6477 18.671L11.7188 18.6893L11.7399 18.7171V18.7613H11.7428ZM12.6836 18.6259L12.6586 18.672L12.6125 18.7085L12.5453 18.7248L12.5088 18.7085L12.4973 18.6691L12.5088 18.625L12.5712 18.5789L12.6173 18.5674H12.6682L12.6845 18.5885V18.6259H12.6836Z" fill="white"/>
<path id="Vector_2" d="M20.1331 9.38312L20.039 9.33896V9.48392L19.9632 9.56936L19.8269 9.77192L19.751 9.8228L19.5389 10.0791L19.4534 10.2154L19.3517 10.4439L19.2413 10.4622L19.1395 10.4026L19.079 10.131L19.0954 9.818L19.1645 9.52712L19.3325 9.25544L19.6733 8.74568L19.8768 8.33096L19.9018 8.04008L19.8691 7.94792L19.8096 8.00744L19.7078 8.26088L19.5533 8.5172L19.3248 8.7044L19.0618 8.95784L18.6701 9.41672L18.5942 9.41L18.5693 9.33128L18.5597 9.14408L18.5846 8.7956L18.7046 8.40584L18.9168 7.97288L19.1981 7.6244L19.5466 7.3268L19.5792 7.25768L19.5379 7.22504L19.3603 7.3172L19.2154 7.41128L18.9686 7.62344L18.6624 7.89512L18.4435 8.19272L18.2304 8.58248L18.1133 8.89832L18.0787 9.21224L18.0624 9.63656L18.1642 10.0791L18.2659 10.4622L18.4618 11.0641L18.5885 11.786L18.6643 12.337V12.6346L18.6317 12.9476L18.5808 13.2039L18.4858 13.4919L18.1286 13.9412L17.7638 14.2734L17.2963 14.5364L16.847 14.5614L16.7875 14.3425L16.6262 14.0266L16.4054 13.7223L16.2605 13.5428L16.0666 13.2798L15.649 12.8814L15.2246 12.5329L15.0384 12.3879L14.4528 11.9914L13.6118 11.2858L13.153 10.7166L12.6509 9.89384L12.5146 9.4004L12.5491 9.09416L12.6182 9.03464L12.7958 9.15464L13.0771 9.29096L13.3056 9.28136L13.5677 9.40136L13.849 9.57224L13.9939 9.68936L14.1811 9.81896L14.375 9.84392L14.4192 9.75848L14.3683 9.74888L14.3088 9.77384L14.2147 9.71432L14.1312 9.5876L14.0112 9.39176L13.7808 9.1796L13.5523 9.09416L13.4256 9.0692L13.4515 9.002H13.6291L13.8346 9.0692L14.1322 9.26504L14.2685 9.32456L14.3194 9.25544L14.2339 9.13832L14.0035 8.93288L13.6464 8.74664L13.2154 8.57864L13.1299 8.50952L13.2154 8.45L13.4093 8.54408L13.7664 8.6036L14.1485 8.75624L14.351 8.858L14.7082 8.90888L14.9645 8.87432L15.1075 8.80712L15.3034 8.68712L15.3888 8.60456L15.3984 8.54504L15.3187 8.55176L15.2429 8.63048L14.9894 8.714L14.7686 8.74856L14.5814 8.7236L14.4019 8.58056L14.2406 8.39144L14.0467 8.2484L13.7568 8.18888L13.4774 8.0948L13.3574 8.01896L13.367 7.95176L13.4774 7.96808H13.7242L13.9709 7.95176H14.2243L14.3606 7.9268L14.471 8.01896L14.6486 8.06312H14.7936L14.8608 8.01224L14.7437 7.97768L14.5987 7.8836L14.4461 7.74056L14.1994 7.61096L13.9968 7.586L13.8106 7.56104L13.7414 7.51976L13.8778 7.44392H14.0986L14.2694 7.4948L14.4374 7.58024L14.7091 7.69736L14.9808 7.70696L15.1258 7.63784L15.167 7.54568L15.0566 7.4948L14.8282 7.4852L14.6323 7.418L14.4624 7.27304L14.2752 7.17896L14.0285 7.13768L13.8163 7.06184L13.7242 6.94184L13.7405 6.88232L13.8768 6.91016L14.0477 6.96104L14.1494 7.03688L14.2944 7.0532L14.3107 6.97736L14.159 6.85736L14.1149 6.74888L14.3194 6.78152L14.5133 6.88328L14.76 6.91112L14.855 7.08872L15.1085 7.24136L15.1219 7.23944L15.1776 7.2164L15.2448 7.17512L15.2122 7.12424L15.1171 7.13096L15.0317 7.01384L14.8608 6.7508L14.5632 6.48584L14.2589 6.34952L14.1734 6.24776L13.9862 6.02696L13.8154 5.9348L13.7904 5.84936L13.8662 5.79848L14.0458 5.83976L14.401 5.94152L14.5718 6.00104L14.6822 6.1556L14.8598 6.24776H14.9962L15.1757 6.29864L15.3715 6.26408L15.4474 6.19688L15.337 6.1028L15.1757 6.06152L14.9885 6.03656L14.8781 5.94248L14.7331 5.73032L14.6986 5.594L14.5114 5.426L14.3088 5.2964L14.0784 5.15336L13.825 4.91624L13.8086 4.84712H13.8662L14.1984 5.11016L14.5373 5.306L14.7168 5.44232L14.9453 5.65448L15.1498 5.76488L15.2678 5.79944L15.3274 5.70536L15.2419 5.67272L15.0643 5.51144L15.0134 5.33192L14.8272 5.12936L14.6726 4.99976L14.5968 4.80584L14.3338 4.41416L13.9766 4.10024L13.9603 3.99848L14.087 4.0148L14.2666 4.10696L14.5546 4.22696L14.8522 4.24328L15.073 4.34696L15.3101 4.38824L15.5126 4.32872L15.4963 4.24328L15.2659 4.1924L15.0634 4.10024L14.6554 3.9044L14.4346 3.7844L14.3165 3.64136L14.3578 3.59048L14.4173 3.63176L14.5094 3.66632L14.6294 3.67592H14.8253L14.9933 3.65768L15.2496 3.64136L15.4454 3.7172L15.648 3.86216L15.7334 3.88712L15.743 3.81128L15.6739 3.74216L15.4714 3.55496L15.1555 3.39368L14.927 3.36872L14.4941 3.34376L14.3933 3.22376L14.1725 3.00296L13.9258 2.83496L13.8336 2.74952L13.9094 2.69L14.0266 2.74088L14.2387 2.85128L14.4787 2.93672L14.8013 3.01256H15.0806L15.311 3.26888L15.4982 3.37928L15.5654 3.31016L15.312 2.93672L14.9136 2.64872L14.5814 2.57L14.3002 2.27528L14.0534 2.13032L13.7146 2.04488L13.9018 1.8836L14.2339 1.7732L14.4806 1.69736L14.5382 1.62152L14.5056 1.562L14.3693 1.52744L14.2406 1.50248L13.2816 1.52072L13.1107 1.3316L12.9168 1.20488L12.6701 1.09448L12.3475 1.0436H12.0682L11.9923 0.941839L11.7293 0.660559L11.4134 0.372559L11.2195 0.695119L11.2099 0.796879L11.3021 0.916879L11.3117 1.01864L11.2445 1.07816L11.0304 1.09448L10.6406 0.984079L10.2576 0.901519L10.08 0.908239L9.79007 0.967759L9.82463 1.06952L9.98591 1.0628L10.0531 1.07432L10.0512 1.16456L9.95711 1.18568L9.83519 1.16936L9.65087 1.20872L9.51263 1.25288L9.40223 1.2596L9.36767 1.3076L9.40703 1.3748L9.49055 1.39304L9.56927 1.37L9.65951 1.33064L9.75167 1.32584L9.94751 1.33544L10.0973 1.38152L10.2749 1.42568L10.535 1.5428L10.5581 1.59848L10.5302 1.64264L10.4083 1.6868L10.3344 1.72136L10.2029 1.80872L10.0022 1.91528L9.75839 2.08808L9.47519 2.20136L9.25439 2.34632L9.05375 2.43368L8.86463 2.47976L8.69855 2.48456L8.47007 2.48936L8.38271 2.5124L8.33183 2.61896L8.29247 2.73416L8.24831 2.81288L8.13791 2.97896L8.03135 3.16328L7.96031 3.25352L7.95359 3.3572L7.96031 3.50216V3.65672L8.05439 3.74216L8.13791 3.78632L8.23679 3.7796L8.39807 3.73544L8.58047 3.67976L8.82719 3.58088L8.92607 3.58568L8.94911 3.64808L8.92607 3.7076L8.84255 3.75176L8.59103 3.84584L8.40191 3.90152L8.36543 3.96392L8.35871 4.03112L8.42111 4.0868L8.55263 4.10312H8.65919L8.79263 4.09832L8.93759 4.06376L9.14783 3.95336L9.28607 3.92552L9.40319 3.90248L9.49343 3.93224L9.62495 3.92552L9.75455 3.94184L9.86111 4.00424L10.0272 4.02056L10.2442 4.08776L10.3613 4.10408L10.5437 4.07144L10.777 4.08776L10.8787 4.12712L10.9344 4.2212L10.9229 4.34312L10.895 4.49288L10.8394 4.66568L10.7606 4.88264L10.6819 5.11976L10.5984 5.33672L10.5427 5.48648L10.3536 5.7812L10.1251 6.0692L9.91967 6.3524L9.65951 6.61256L9.41951 6.81512L9.26687 6.9764L9.18623 7.24136L9.07487 7.37288L8.93183 7.47464L8.75903 7.61768L8.49407 7.77896L8.27039 7.89128L8.12735 8.05448L8.02559 8.18696L7.92383 8.24936L7.78079 8.3204L7.68863 8.29928L7.50623 8.21576L7.30367 8.08424L7.00607 7.95272L6.67199 7.778L6.49919 7.64648L6.28511 7.47368L6.04991 7.27976L5.79647 7.1876L5.57279 7.14824L5.28671 7.20776L5.08415 7.32104L4.90943 7.44296L4.81919 7.66664L4.75679 7.83944L4.68575 8.1044L4.60511 8.26568L4.52447 8.5124L4.51295 8.80712L4.44191 8.97992L4.36127 9.25448L4.29023 9.52904L4.15871 9.78536L4.08767 10.0388L4.04639 10.3546L3.93311 10.6196L3.86207 10.7713L3.85247 10.9239L3.84287 11.1802V11.6276L3.79199 11.8119L3.82175 11.9732L3.81023 12.2382L3.90239 12.4503L3.97343 12.5012L4.10495 12.4599L4.22687 12.3495L4.40159 12.1374L4.55423 11.8935L4.61375 11.691L4.57439 11.5278L4.52351 11.3252L4.46111 11.0814L4.40159 10.826L4.36895 10.6321V10.4497L4.41023 10.2442L4.51199 9.93032L4.61375 9.76712L4.70591 9.68456L4.77695 9.57416L4.90847 9.56264L4.97087 9.52328L5.06303 9.43976L5.16479 9.34952L5.25695 9.2276L5.29631 9.08456L5.32895 8.96264L5.33855 8.79944L5.36831 8.6564L5.43935 8.56616L5.51039 8.54504L5.60255 8.5748L5.73407 8.64584L5.87711 8.80904L6.02975 9.03272L6.20255 9.23528L6.38687 9.39848L6.55007 9.53L6.71135 9.60104L6.76223 9.7028L6.71135 9.75368L6.53855 9.71432L6.29471 9.6932L5.97887 9.6308L5.67455 9.57128L5.30783 9.55976L5.09375 9.57128L4.93055 9.67304L4.75775 9.82472L4.61471 10.0686L4.50431 10.345L4.49279 10.5476L4.55519 10.9143L4.69823 11.3818L4.76927 11.7486L4.85951 12.1057L4.92191 12.3572L4.95167 12.5924L5.03231 12.8574L5.09471 13.2634L5.15423 13.4065L5.30879 13.5284L5.45183 13.6714L5.61311 13.9162L5.72639 14.2023L5.89919 14.4558L6.15263 14.6996L6.33599 14.8129L6.45791 14.8225L6.55967 14.7927L6.62207 14.6497L6.69119 14.5278L6.73247 14.355V13.9585L6.68159 13.8452C6.67199 13.8452 6.67199 13.7742 6.67199 13.7646L6.65087 13.6935L6.56735 13.5716L6.41471 13.419L6.13151 13.297L6.02783 13.2644L6.00959 13.0916L6.01919 12.9812L5.82527 12.7575L5.70335 12.4714L5.60159 12.0654L5.51903 11.69L5.37887 11.3953L5.32799 11.0382L5.40863 10.8241L5.55167 10.7434H5.66207L5.82527 10.8865L6.06047 11.0295L6.30431 11.1198L6.89471 11.4058L7.18079 11.569V11.7207L7.44383 11.8724L7.78079 11.9857H8.48351L8.43263 12.1172L8.40287 12.1882L8.49311 12.3591L8.66591 12.6154L8.94239 12.89L9.27647 13.2567L9.56255 13.5102L10.0973 13.9201L10.5302 14.1524L10.8557 14.3252L11.2733 14.6084L11.6582 14.883L11.9904 15.1642L12.336 15.6318L12.3523 15.8276L12.431 16.0302L12.6432 16.1828L12.8371 16.2586L12.9571 16.2423L13.0522 16.1502L13.1885 16.0052L13.2211 15.8094L13.3824 15.53L13.417 15.3159L13.4429 15.0788L13.4592 14.8916L13.512 14.7745L13.6205 14.7217H13.7242L13.7309 14.8004L13.655 14.883L13.5878 15.0625L13.537 15.1729V15.3092L13.5187 15.5972L13.4774 15.7422L13.3507 15.961L13.1798 16.2423L13.0099 16.5486L12.9091 16.947L12.8582 17.3646L12.9091 17.8302L12.9763 18.1018L13.1376 18.459L13.343 18.8833L13.5043 19.2154L13.7251 19.5639L13.9882 19.8865L14.039 19.9969V20.0727L14.0045 20.1668L13.9123 20.3194L13.7674 20.522L13.4698 20.905L13.1722 21.2276L12.9005 21.5252L12.7834 21.5943L12.5434 21.6865L12.4003 21.8228L12.3245 21.9774L12.1536 22.1895L11.9606 22.4017L11.7235 22.6484L11.5786 22.9018L11.4931 23.1582L11.4422 23.3703L11.4518 23.5412L11.5536 23.6497H11.927L12.0883 23.6334L12.2573 23.5326L12.4781 23.4308L12.5126 23.3454H12.5885L12.7056 23.2945L12.816 23.1908L12.8765 22.7847L12.8419 22.6993L12.8256 22.6138L12.8861 22.6302L12.9523 22.6484L13.0214 22.5975L13.1318 22.5284L13.249 22.3758L13.3939 22.1703L13.4698 21.9841L13.4861 21.8314L13.5811 21.7623L13.7174 21.6865L13.8278 21.6193L13.92 21.433L14.1158 21.2286L14.4816 20.8897L14.76 20.7034L15.0413 20.5489L15.1075 20.4817L15.1334 20.4126L15.193 20.3367L15.1517 20.2359L15.143 20.0487L15.1056 19.874L15.0614 19.7722L14.9645 19.6062L14.8099 19.4122L14.7341 19.2673L14.7178 19.1146V18.9102L14.7523 18.793L14.8445 18.4772L14.9386 18.3246L15.0403 18.265L15.2266 18.1479L15.4474 17.9588L15.745 17.7054L15.9475 17.4932L16.152 17.2561L16.3642 17.0161L16.5168 16.7463L16.6435 16.5159L16.7635 16.2529L16.849 15.962L16.8749 15.6922L16.8912 15.4868L16.9603 15.4196L17.0362 15.4014L17.1034 15.4455L17.1629 15.5886L17.1792 15.7844L17.207 15.9706L17.1888 16.0974L17.1725 16.2932V16.7108L17.2234 17.0401L17.2829 17.1255L17.3338 17.1188L17.3587 17.0593L17.3242 16.923V16.6926L17.3933 16.4986L17.4259 16.2174L17.4605 16.0215L17.5046 15.9294H17.5555L17.5968 15.9706L17.6381 16.1319L17.6726 16.2865L17.6563 16.5303L17.6054 16.8625L17.4509 17.185L17.3078 17.4913L17.2224 17.7543L17.2061 17.9156L17.2224 18.1018L17.2819 18.2814H17.3923L17.4499 18.2026L17.4173 18.1172L17.3923 17.9646L17.4931 17.8282L17.6112 17.667L17.6899 17.5153L17.8762 17.2177L18.0288 16.946L18.096 16.6484L18.1555 16.2567V15.8689L18.0797 15.5972L17.927 15.385L17.9088 15.2842L17.9779 15.2497L18.0634 15.291L18.1738 15.4273L18.3101 15.674L18.3677 15.962L18.4022 16.345L18.4877 16.61L18.4973 16.6167L18.6144 16.8798L18.6902 16.9076L18.7248 16.8385L18.7162 16.7972L18.6586 16.6014L18.6499 16.4055L18.6586 16.1175L18.7094 15.795V15.6337L18.6912 15.4974L18.5549 15.2247L18.4378 15.0289L18.479 14.953L18.6403 14.9185L18.8611 14.8177L19.0982 14.691L19.3104 14.5047L19.5821 14.138L19.7366 13.8337L19.8634 13.5438L19.9046 13.0782L19.9142 12.6606L19.847 12.1441L19.7683 11.7706L19.7011 11.3876L19.6598 10.9892L19.6925 10.7358L19.7616 10.4199L19.9046 10.106L20.1091 9.78344L20.185 9.578L20.2013 9.47624L20.1331 9.38312ZM8.58335 3.23528L8.51615 3.30248L8.42207 3.35528L8.29535 3.38312L8.25119 3.35528L8.23487 3.26504L8.27231 3.13832L8.36255 3.01352L8.43647 2.97704L8.50367 2.98376L8.58431 3.05096L8.62079 3.11048L8.58335 3.23528ZM8.91455 3.15272L8.89151 3.16424L8.84543 3.16616L8.80895 3.14792L8.77919 3.11336L8.78399 3.07208L8.81855 3.0164L8.84639 2.99816H8.88287L8.91551 3.00488L8.92703 3.03944L8.93183 3.09992L8.91455 3.15272ZM9.32543 3.53096L9.29087 3.54728H9.24671L9.22175 3.53384L9.20831 3.4964L9.21311 3.45032L9.23807 3.42248L9.27071 3.42056L9.30527 3.43016L9.32159 3.45512L9.33311 3.4964L9.32543 3.53096ZM10.1107 2.34152L10.0579 2.35592L9.99359 2.37224L9.92255 2.43176L9.76319 2.52872L9.54431 2.58824L9.40799 2.6228L9.27647 2.6324L9.20927 2.62568L9.31583 2.53544L9.51167 2.44136L9.70751 2.354L9.89375 2.26664L9.97919 2.22536L10.0435 2.21576L10.0963 2.22728L10.1376 2.29448L10.1107 2.34152ZM4.17599 11.8954L4.10687 11.8791L4.07231 11.8119L4.14143 11.7774L4.20191 11.7841L4.21823 11.8436L4.17599 11.8954ZM5.06783 8.33192L5.01983 8.51144L4.95743 8.714L4.84703 8.88488L4.78751 8.9012L4.76639 8.85512V8.76488L4.77791 8.64296L4.82207 8.41256L4.91903 8.24456L4.96991 8.18504L5.04383 8.16392L5.07167 8.2052L5.06783 8.33192ZM5.55935 7.65608L5.44895 7.69736L5.34335 7.70888L5.27903 7.68392L5.26271 7.63784L5.28095 7.57544L5.33663 7.53608L5.45183 7.52264L5.51135 7.51784L5.55263 7.52936L5.58911 7.56392L5.59103 7.60328L5.55935 7.65608ZM6.45983 8.87144L6.43679 8.87336L6.38111 8.8388L6.30335 8.79464L6.23615 8.73896L6.17375 8.67656L6.14591 8.642L6.13919 8.59112L6.15263 8.56616L6.17567 8.56808L6.21503 8.5748L6.25919 8.61416L6.31007 8.66024L6.39071 8.70824L6.43871 8.76584L6.46847 8.81L6.47039 8.84936L6.45983 8.87144ZM4.94591 10.081L4.90463 10.1386L4.86335 10.155L4.83551 10.1319L4.83743 10.0494L4.90655 9.92936L4.92767 9.8948L4.96223 9.87848L4.99487 9.8996V9.96872L4.97375 10.0167L4.94591 10.081ZM5.23391 12.2228L5.22047 12.2439H5.20415L5.17439 12.219L5.15135 12.1748L5.11487 12.0942L5.06207 11.9886L5.00927 11.8225L4.98143 11.666L4.97663 11.4836L5.00159 11.3041L5.01503 11.283H5.03999L5.06495 11.306L5.08991 11.4145L5.09183 11.5249L5.13599 11.665L5.18879 11.8148L5.21183 11.9463L5.24447 12.1604L5.23391 12.2228ZM6.26207 14.1841L6.28991 14.1774L6.35711 14.1918L6.38687 14.2244L6.39359 14.2638L6.38687 14.3098L6.34751 14.3396L6.29951 14.331L6.26495 14.2983L6.25055 14.2273L6.26207 14.1841ZM6.92831 11.0794L6.85919 11.0842L6.76895 11.0708L6.70655 11.043L6.56159 10.9527L6.41855 10.8462L6.25727 10.7492L6.20159 10.7079L6.27551 10.706L6.35615 10.7358L6.49439 10.7703L6.62111 10.8327L6.76895 10.897L6.87455 10.945L6.93023 10.9959L6.93983 11.042L6.92831 11.0794ZM7.69535 9.09224L7.59839 9.36392L7.51295 9.62408L7.36319 9.81032L7.28735 9.86792L7.20671 9.89768L7.16063 9.86504L7.15583 9.80552L7.22015 9.7364L7.28735 9.626L7.37279 9.43976L7.42367 9.26216L7.46975 9.08744L7.55999 8.91944L7.62047 8.834L7.67135 8.8196L7.71743 8.83784L7.73183 8.89352L7.69535 9.09224ZM11.3923 3.70088L11.4682 3.60392L11.5555 3.52136L11.6342 3.46856L11.6918 3.46376L11.7312 3.48872V3.55976L11.7101 3.63848L11.6227 3.722L11.519 3.78632L11.4134 3.81416L11.3626 3.79784L11.3558 3.75656L11.3923 3.70088ZM11.0842 1.9124L11.1581 1.88744L11.209 1.8644L11.2733 1.88744L11.2944 1.93352L11.2464 1.9892L11.1792 2.01416L11.0986 2.01896L11.0688 1.96328L11.0842 1.9124ZM10.4429 2.50952L10.4131 2.42888L10.4573 2.33864L10.5542 2.258L10.7088 2.25128L10.8221 2.2724L10.9094 2.33288L10.9536 2.43656L10.9901 2.54696L10.9834 2.64392L10.8864 2.6804H10.7827L10.6579 2.62952L10.5475 2.57L10.4429 2.50952ZM10.8211 3.69224L10.6896 3.722H10.5715L10.5504 3.68264L10.5802 3.64136L10.6147 3.62024L10.8451 3.45704L10.9853 3.36968L11.0707 3.31688H11.1005L11.1053 3.37928L11.0477 3.42536L11.0198 3.5204L10.9488 3.6308L10.8211 3.69224ZM9.28607 7.90568L9.26975 7.88072L9.27455 7.81832L9.31583 7.77224L9.46079 7.71272L9.76319 7.61864L10.0656 7.5812H10.2499L10.4016 7.61384L10.5446 7.68488L10.6579 7.79528L10.6646 7.85768L10.6512 7.90184L10.6032 7.91144L10.5293 7.90184L10.416 7.8692L10.3094 7.83752L10.1779 7.82312H10.0147L9.87647 7.8212L9.75455 7.83272L9.61823 7.85576L9.50975 7.88552L9.40415 7.90856L9.33503 7.91336L9.28607 7.90568ZM11.1994 14.161L11.0448 14.0641L10.7846 13.8913L10.3814 13.6196L10.2182 13.5092L10.0454 13.3738L9.85631 13.201L9.71807 13.0926L9.55199 12.9313L9.44351 12.818L9.37631 12.7143L9.35135 12.5895L9.35615 12.4743L9.40031 12.4302L9.47615 12.435L9.59615 12.507L9.72479 12.6318L9.81983 12.747L9.92159 12.8487L10.0205 12.9706L10.1453 13.107L10.2634 13.2385L10.6502 13.5745L10.8643 13.7655L11.0554 13.9383L11.2099 14.0833L11.2397 14.1313L11.2608 14.1658L11.1994 14.161ZM11.303 8.8916L11.255 8.91944L11.1379 8.92136L11.0592 8.90312L11.015 8.84552L10.9786 8.79944V8.72552L11.0362 8.6516L11.1235 8.58248L11.2061 8.57096L11.2819 8.59208L11.305 8.63336L11.3146 8.72552L11.3261 8.82248L11.303 8.8916ZM11.5354 5.09288L11.4874 5.27048L11.3789 5.55368L11.2339 5.79368L11.0726 6.0932L10.8144 6.45512L10.6186 6.66056L10.4822 6.71336L10.4381 6.71144L10.4314 6.67688L10.4726 6.57992L10.6387 6.3236L10.775 6.04232L10.897 5.8004L11.1139 5.38088L11.3194 5.05352L11.425 4.95176L11.5056 4.93832L11.5402 4.994L11.5354 5.09288ZM12.0086 3.86216L11.9837 3.92456L11.8934 4.03016L11.7686 4.08968L11.6438 4.14056L11.5142 4.14248H11.4336L11.4058 4.10504L11.4355 4.05224L11.5066 4.0196L11.6314 3.95912L11.7744 3.87176L11.8416 3.82376L11.9434 3.7748L12.0077 3.79112V3.86216H12.0086ZM12.6835 7.75112L12.6374 7.76456L12.5779 7.75976L12.5386 7.7204L12.5482 7.68584L12.5875 7.658L12.647 7.6532L12.6979 7.69448L12.6998 7.72904L12.6835 7.75112ZM12.7526 7.52552H12.6835L12.6461 7.5044V7.45352L12.6624 7.41896L12.6989 7.40744H12.7478L12.7939 7.4372L12.7987 7.47368L12.7526 7.52552ZM12.8794 7.17704L12.8323 7.20008L12.7843 7.2068L12.7334 7.19528L12.7171 7.16072V7.11944L12.7584 7.08968L12.8093 7.08008H12.8582L12.888 7.10504L12.8947 7.1444L12.8794 7.17704ZM12.9437 6.88424L12.8813 6.90248L12.8122 6.90056L12.7757 6.8756L12.7738 6.84776L12.7853 6.80648L12.84 6.78152L12.9005 6.77288L12.9514 6.79784L12.9696 6.84584L12.9437 6.88424ZM13.0934 6.47432L13.0589 6.5204L13.0262 6.56168L12.9619 6.57512H12.8976L12.8419 6.54728L12.8371 6.50312L12.8765 6.46184L12.9062 6.42728L12.9504 6.41096L13.0214 6.38984H13.0771L13.1021 6.4196L13.0934 6.47432ZM13.1856 6.13064L13.1558 6.17864L13.103 6.18824L13.0474 6.20264L12.9782 6.20072L12.9485 6.16616L12.9533 6.11528L12.9763 6.08072L13.0224 6.04808L13.0934 6.03848L13.1578 6.05192L13.1856 6.09128V6.13064ZM13.2826 5.8772L13.2115 5.90696L13.1558 5.9252H13.0867L13.0589 5.9204L13.0243 5.90888L13.0061 5.87432L13.0147 5.83016L13.0608 5.78888L13.1002 5.76776L13.1443 5.74952L13.2067 5.7476L13.2672 5.76872L13.2922 5.81672L13.2826 5.8772ZM13.2922 5.48264L13.2672 5.52392L13.223 5.5604L13.1587 5.58344L13.0829 5.59016L13.0205 5.58152L13.0042 5.54408L13.0138 5.51432L13.0387 5.49608L13.1491 5.43848L13.2019 5.42696L13.2672 5.43368L13.2922 5.45672V5.48264ZM13.0771 4.54952H13.1165L13.1376 4.53608L13.1462 4.4948L13.1549 4.46312L13.1741 4.44008L13.2086 4.43816L13.2499 4.44968L13.2874 4.4708L13.2922 4.51496L13.2874 4.586L13.2326 4.634L13.1606 4.66856L13.1309 4.66376L13.1011 4.65224L13.0714 4.6148L13.0666 4.57352L13.0771 4.54952ZM13.0771 4.2548V4.22024L13.1078 4.19048L13.1558 4.17224L13.2134 4.17032L13.248 4.18184L13.2576 4.2116L13.2384 4.24136L13.2086 4.274L13.1597 4.28552H13.1088L13.0771 4.2548ZM13.08 5.18792L13.1213 5.16296L13.1702 5.15144L13.2182 5.14664L13.2528 5.14856L13.2662 5.16968V5.20424L13.2499 5.24072L13.2173 5.2772L13.1366 5.31176L13.0973 5.30696L13.0608 5.29544L13.0512 5.25608L13.0589 5.21192L13.08 5.18792ZM13.2874 4.90472L13.2758 4.93448L13.225 4.96904L13.1558 4.994L13.1174 4.9844L13.08 4.96328L13.0733 4.92584L13.0781 4.87976L13.1059 4.85192L13.1453 4.82408L13.2029 4.81256L13.2518 4.81064L13.2845 4.82024L13.296 4.85288L13.2874 4.90472ZM13.3056 3.92936L13.2989 3.96872L13.2739 4.00328L13.2326 4.0196L13.1933 4.0292L13.1587 4.034L13.1126 4.0292L13.1011 4.00136L13.1126 3.96488L13.1405 3.93992L13.1712 3.9236L13.2221 3.88904L13.2749 3.89096L13.3056 3.92936ZM13.2346 3.59048L13.2624 3.6068L13.2672 3.64616L13.2643 3.6836L13.2211 3.72296L13.1798 3.73928L13.152 3.73448L13.1309 3.72296V3.68552L13.1328 3.64616L13.1626 3.61448L13.1904 3.59816L13.2346 3.59048ZM13.1808 3.39944L13.1693 3.44072L13.1386 3.46376L13.1107 3.48008L13.0733 3.48488L13.0435 3.46664L13.0368 3.434L13.0502 3.40616L13.0781 3.36872L13.1059 3.35528L13.1424 3.35336L13.1731 3.3716L13.1808 3.39944ZM12.8035 2.65448L12.8707 2.64968L12.9648 2.6132L13.0502 2.59496L13.1213 2.59016L13.1578 2.62472L13.1069 2.70056L13.056 2.714L12.9715 2.74376L12.8611 2.80616L12.7555 2.86184L12.6336 2.91272L12.5923 2.91752L12.5578 2.906L12.5626 2.85512L12.5443 2.80712V2.71976L12.5837 2.62088L12.6384 2.56136L12.6739 2.51528L12.7104 2.4692H12.7661L12.8045 2.50856L12.7958 2.60552L12.8035 2.65448ZM12.7642 1.73768L12.7891 1.754L12.7805 1.77896L12.743 1.82312L12.6922 1.82792L12.6317 1.81928L12.5971 1.80296L12.5722 1.7732L12.6019 1.74824L12.6451 1.73L12.7123 1.72808L12.7642 1.73768ZM12.4464 1.38056L12.5616 1.36904L12.624 1.39016L12.673 1.41512L12.6749 1.4564L12.6336 1.47464L12.5693 1.47944L12.5069 1.47464L12.4579 1.46504L12.4166 1.43528L12.4464 1.38056ZM13.3382 13.3498L13.2826 13.4007L13.2317 13.4583L13.1808 13.5649L13.1645 13.6388L13.1299 13.6666L13.0627 13.658L13.0301 13.6186L13.0416 13.4785L13.0781 13.3028L13.0963 13.2058L13.1405 13.0839L13.1731 13.0474L13.2211 13.0378H13.2854L13.3133 13.0638L13.3613 13.1348L13.3709 13.2711L13.3382 13.3498ZM13.4486 11.6833L13.1578 11.5306L13.0061 11.3857L12.7526 11.1322L12.5222 10.8414L12.3197 10.5121L12.1584 10.1041L12.0912 9.8228L12.1229 9.66152L12.215 9.63656L12.3091 9.68072L12.3696 9.84872L12.4205 10.0954L12.5126 10.3518L12.7526 10.7252L13.0752 11.2004L13.4486 11.6833ZM13.4698 16.6407L13.4045 16.8202L13.3728 16.9076L13.3123 17.0439L13.2662 17.2033L13.2528 17.2494L13.2365 17.2791H13.1923L13.1578 17.1754L13.1558 17.0574L13.1808 16.8961L13.2384 16.6753L13.3334 16.539L13.4189 16.4334L13.4947 16.4238L13.5158 16.4929L13.4698 16.6407ZM13.8058 19.0522L13.7894 19.0542L13.7597 19.0407L13.704 18.9601L13.6214 18.8238L13.5821 18.7335L13.559 18.6087V18.4935L13.5638 18.4244L13.5802 18.4033H13.6166L13.656 18.4196L13.7069 18.4791L13.7443 18.5828L13.7693 18.721L13.7712 18.8314L13.7731 18.8708L13.7942 18.9236L13.8154 19.0302L13.8058 19.0522ZM12.1027 23.0372L12.0682 23.1044L12.0269 23.1668L11.9597 23.211L11.8954 23.2244H11.8675L11.8378 23.2014L11.8282 23.1534L11.8397 23.0929L11.8742 23.0238L11.9683 22.9297L12.0394 22.8855L12.0902 22.8836L12.1162 22.9047L12.1229 22.9527L12.1027 23.0372ZM12.7344 22.0186L12.6989 22.0666L12.6557 22.0916L12.6029 22.1098L12.5635 22.0983L12.5405 22.057L12.5453 22.0158L12.5846 21.9668L12.6634 21.9188L12.721 21.9092L12.7488 21.9255L12.7565 21.9668L12.7344 22.0186ZM14.1446 20.6122L14.0429 20.762L13.9066 20.9214L13.752 21.0711L13.5888 21.242L13.4362 21.3802L13.3162 21.4887L13.249 21.5329L13.2048 21.531L13.1837 21.4964L13.1933 21.4388L13.3805 21.2314L13.6426 20.9482L13.9613 20.6276L14.0208 20.5633L14.111 20.5057L14.1437 20.5124L14.1706 20.547L14.1446 20.6122ZM14.7322 20.1582L14.7715 20.1438L14.8224 20.1457L14.8454 20.1572L14.8474 20.1822L14.8272 20.2148L14.7811 20.2561L14.7398 20.3022H14.712L14.6803 20.2839L14.6726 20.2446L14.6861 20.2052L14.7322 20.1582ZM16.4333 15.5185L16.4237 15.5943L16.4006 15.6654L16.3862 15.7297L16.3382 15.7575L16.2941 15.746L16.272 15.7047L16.2576 15.5598L16.1606 15.4263L16.152 15.3159L16.2067 15.2468L16.2643 15.2286L16.32 15.2334L16.3661 15.2746L16.4189 15.3418L16.4333 15.4177V15.5185ZM19.3037 12.8842L19.2989 12.9927L19.2557 13.2298L19.1952 13.4324L19.1261 13.61L19.0224 13.803L18.9043 13.969L18.7267 14.1764L18.5242 14.3703L18.4205 14.3953L18.3648 14.3703L18.3562 14.2964L18.4003 14.1975L18.4598 14.089L18.5683 13.946L18.6854 13.7866L18.7958 13.6138L18.9043 13.4362L18.9869 13.2634L19.0358 13.0858L19.0771 12.8833L19.0867 12.6577L19.0954 12.4551L19.0819 12.2775L19.0608 12.0721L19.0426 11.8782L19.031 11.7697L19.0906 11.7102L19.1299 11.7313L19.1597 11.8254L19.2192 12.0116L19.2682 12.2353L19.3027 12.4494V12.8842H19.3037Z" fill="white"/>
</g>
</svg>
